<svg xmlns="http://www.w3.org/2000/svg" width="32" height="32.001" viewBox="0 0 32 32.001">
  <path id="bookmaker" d="M8.533,32A.534.534,0,0,1,8,31.467,2.669,2.669,0,0,1,10.667,28.8h1.912L14.4,26.979V7.467H9.923a5.792,5.792,0,0,0-2.444.539l5.269,11.507a.507.507,0,0,1,.053.22,3.737,3.737,0,0,1-3.733,3.733H3.733A3.737,3.737,0,0,1,0,19.733a.526.526,0,0,1,.049-.222L5.3,8.05,4.028,7.413l.477-.956,1.242.622.167-.366a.534.534,0,0,1,.97,0l.149.327A6.871,6.871,0,0,1,9.923,6.4H14.4V5.333H13.333V4.267h.916l-.383-1.534a2.2,2.2,0,1,1,4.267,0L17.75,4.267h.917V5.333H17.6V6.4H22.08a6.855,6.855,0,0,1,2.885.639l.15-.328a.533.533,0,0,1,.969,0l.168.366L27.5,6.459l.477.954L26.7,8.048l5.254,11.463-.005,0a.521.521,0,0,1,.054.22,3.738,3.738,0,0,1-3.734,3.733H22.933A3.738,3.738,0,0,1,19.2,19.733a.526.526,0,0,1,.049-.222l5.276-11.5a5.792,5.792,0,0,0-2.444-.539H17.6V26.979L19.421,28.8h1.913A2.67,2.67,0,0,1,24,31.467a.534.534,0,0,1-.534.534Z" transform="translate(0 0)"/>
</svg>
