<svg xmlns="http://www.w3.org/2000/svg" width="30" height="30.001" viewBox="0 0 30 30.001">
  <g id="header-review" transform="translate(0 0)">
    <path id="Shape" d="M8,30a.5.5,0,0,1-.5-.5A2.5,2.5,0,0,1,10,27h1.793L13.5,25.294V7H9.3a5.435,5.435,0,0,0-2.291.506L11.95,18.293A.486.486,0,0,1,12,18.5,3.5,3.5,0,0,1,8.5,22h-5A3.5,3.5,0,0,1,0,18.5a.494.494,0,0,1,.046-.209L4.971,7.547l-1.194-.6.447-.9,1.165.582.158-.344a.5.5,0,0,1,.909,0L6.6,6.6A6.424,6.424,0,0,1,9.3,6h4.2V5h-1V4h.859L13,2.561a2.062,2.062,0,1,1,4,0L16.64,4h.86V5h-1V6h4.2a6.445,6.445,0,0,1,2.705.6l.14-.307a.5.5,0,0,1,.909,0l.158.344,1.165-.581.446.9-1.194.594,4.926,10.747,0,0A.486.486,0,0,1,30,18.5,3.5,3.5,0,0,1,26.5,22h-5A3.5,3.5,0,0,1,18,18.5a.494.494,0,0,1,.046-.209L22.991,7.506A5.435,5.435,0,0,0,20.7,7H16.5V25.294L18.207,27H20a2.5,2.5,0,0,1,2.5,2.5.5.5,0,0,1-.5.5Z" transform="translate(0 0)" fill="#f6e56f"/>
  </g>
</svg>
