<svg xmlns="http://www.w3.org/2000/svg" width="30.912" height="35" viewBox="0 0 30.912 35">
  <g id="header-offer" transform="translate(0)">
    <path id="Path" d="M2.363,8.651a.484.484,0,0,0-.186-.007A1.292,1.292,0,0,1,1.086,7.335a.563.563,0,0,0-.543-.581A.563.563,0,0,0,0,7.335,2.464,2.464,0,0,0,1.708,9.727v.581a.563.563,0,0,0,.543.581.563.563,0,0,0,.543-.581V9.763A2.465,2.465,0,0,0,4.624,7.08,2.383,2.383,0,0,0,2.318,4.855,1.278,1.278,0,0,1,1.086,3.537,1.278,1.278,0,0,1,2.318,2.218,1.278,1.278,0,0,1,3.551,3.537a.544.544,0,1,0,1.086,0A2.451,2.451,0,0,0,2.793,1.109V.581A.563.563,0,0,0,2.251,0a.563.563,0,0,0-.543.581v.564A2.483,2.483,0,0,0,.021,3.867a2.376,2.376,0,0,0,2.3,2.15A1.275,1.275,0,0,1,3.55,7.31,1.283,1.283,0,0,1,2.363,8.651Z" transform="translate(13.138 10.889)" fill="#f6e56f"/>
    <path id="Shape" d="M0,8.167A8.348,8.348,0,0,1,8.5,0,8.339,8.339,0,0,1,17,8.167a8.339,8.339,0,0,1-8.5,8.167A8.338,8.338,0,0,1,0,8.167Z" transform="translate(6.955 7.778)" fill="#f6e56f"/>
    <path id="Shape-2" data-name="Shape" d="M17.1,11.667a7.6,7.6,0,0,1-1.556-.161l-.037-.01-7.08-2a2.025,2.025,0,0,0-1.517.167L5.728,10.3l-.013.482a.577.577,0,0,1-.576.563H5.124L.56,11.222A.579.579,0,0,1,0,10.627L.276.563A.576.576,0,0,1,.867,0L5.431.127a.577.577,0,0,1,.56.594l-.027.964a7.438,7.438,0,0,1,6.919-.007l.424.22a4.375,4.375,0,0,0,1.891.491l4.162.115A3.672,3.672,0,0,1,22.49,4.445L27,2.3A2.9,2.9,0,0,1,30.838,3.48a.581.581,0,0,1-.189.77L20.384,10.923a.469.469,0,0,1-.072.04,7.639,7.639,0,0,1-3.2.7Z" transform="translate(0 23.333)" fill="#f6e56f"/>
    <path id="Path-2" data-name="Path" d="M.773,6.391V.609C.773.273.6,0,.386,0S0,.273,0,.609V6.391C0,6.727.173,7,.386,7S.773,6.727.773,6.391Z" transform="translate(15.456)" fill="#f6e56f"/>
    <path id="Path-3" data-name="Path" d="M.773,3.291V.6C.773.268.6,0,.386,0S0,.268,0,.6V3.291c0,.33.173.6.386.6S.773,3.621.773,3.291Z" transform="translate(19.32 3.111)" fill="#f6e56f"/>
    <path id="Path-4" data-name="Path" d="M.773,3.291V.6C.773.268.6,0,.386,0S0,.268,0,.6V3.291c0,.33.173.6.386.6S.773,3.621.773,3.291Z" transform="translate(10.819 3.111)" fill="#f6e56f"/>
  </g>
</svg>
