<svg id="header-newspaper" xmlns="http://www.w3.org/2000/svg" width="30" height="30" viewBox="0 0 30 30">
  <path id="Path" d="M10.471,0H.438A.4.4,0,0,0,0,.341.4.4,0,0,0,.438.682H10.471a.4.4,0,0,0,.438-.341A.4.4,0,0,0,10.471,0Z" transform="translate(12.273 15.682)" fill="#f6e56f"/>
  <path id="Path-2" data-name="Path" d="M10.471,0H.438A.4.4,0,0,0,0,.341.4.4,0,0,0,.438.682H10.471a.4.4,0,0,0,.438-.341A.4.4,0,0,0,10.471,0Z" transform="translate(12.273 17.727)" fill="#f6e56f"/>
  <path id="Path-3" data-name="Path" d="M10.471,0H.438A.4.4,0,0,0,0,.341.4.4,0,0,0,.438.682H10.471a.4.4,0,0,0,.438-.341A.4.4,0,0,0,10.471,0Z" transform="translate(12.273 19.773)" fill="#f6e56f"/>
  <path id="Path-4" data-name="Path" d="M10.471,0H.438A.4.4,0,0,0,0,.341.4.4,0,0,0,.438.682H10.471a.4.4,0,0,0,.438-.341A.4.4,0,0,0,10.471,0Z" transform="translate(12.273 21.818)" fill="#f6e56f"/>
  <path id="Path-5" data-name="Path" d="M10.471,0H.438A.4.4,0,0,0,0,.341.4.4,0,0,0,.438.682H10.471a.4.4,0,0,0,.438-.341A.4.4,0,0,0,10.471,0Z" transform="translate(12.273 23.182)" fill="#f6e56f"/>
  <path id="Path-6" data-name="Path" d="M10.471,0H.438A.4.4,0,0,0,0,.341.4.4,0,0,0,.438.682H10.471a.4.4,0,0,0,.438-.341A.4.4,0,0,0,10.471,0Z" transform="translate(12.273 25.227)" fill="#f6e56f"/>
  <path id="Path-7" data-name="Path" d="M.444.682h20.93a.4.4,0,0,0,.444-.341A.4.4,0,0,0,21.374,0H.444A.4.4,0,0,0,0,.341.4.4,0,0,0,.444.682Z" transform="translate(2.045 27.273)" fill="#f6e56f"/>
  <path id="Shape" d="M.425,10.228A.43.43,0,0,1,0,9.793V.435A.43.43,0,0,1,.425,0H8.438a.43.43,0,0,1,.425.435V9.793a.43.43,0,0,1-.425.435Z" transform="translate(2.045 15.682)" fill="#f6e56f"/>
  <path id="Shape-2" data-name="Shape" d="M.444,8.863A.442.442,0,0,1,0,8.421V.442A.443.443,0,0,1,.444,0h20.93a.442.442,0,0,1,.444.442V8.421a.442.442,0,0,1-.444.442Z" transform="translate(2.045 5.455)" fill="#f6e56f"/>
  <path id="Path-8" data-name="Path" d="M.475,4.773a.449.449,0,0,0,.475-.418V1.765L3.109,4.51a.574.574,0,0,0,.6.2.5.5,0,0,0,.378-.49L4.049.414A.45.45,0,0,0,3.574,0h0A.448.448,0,0,0,3.1.422l.029,2.643L.866.188A.512.512,0,0,0,.334.026.428.428,0,0,0,0,.425v3.93A.449.449,0,0,0,.475,4.773Z" transform="translate(3.409 7.5)" fill="#f6e56f"/>
  <path id="Path-9" data-name="Path" d="M.457,4.773H2.271a.419.419,0,1,0,0-.835H.913V2.8H2.137a.438.438,0,0,0,.457-.418.438.438,0,0,0-.457-.418H.913V.835H2.271A.438.438,0,0,0,2.727.418.438.438,0,0,0,2.271,0H.457A.438.438,0,0,0,0,.418V4.355a.438.438,0,0,0,.457.418Z" transform="translate(8.182 7.5)" fill="#f6e56f"/>
  <path id="Path-10" data-name="Path" d="M1.8,4.773a1.556,1.556,0,0,0,1.592-1.2,1.412,1.412,0,0,0-1.1-1.55c-.5-.183-.961-.382-1.09-.439a.345.345,0,0,1-.133-.331A.468.468,0,0,1,1.432.879a1.4,1.4,0,0,1,1.158.264.421.421,0,0,0,.59-.052A.416.416,0,0,0,3.129.5,2.235,2.235,0,0,0,1.19.08,1.314,1.314,0,0,0,.234,1.137,1.175,1.175,0,0,0,.762,2.3a.413.413,0,0,0,.058.032c.023.01.566.251,1.177.475.4.148.611.374.567.619a.742.742,0,0,1-.765.509A1.458,1.458,0,0,1,.731,3.491a.421.421,0,0,0-.593-.029.416.416,0,0,0-.029.59,2.311,2.311,0,0,0,1.69.721Z" transform="translate(18.409 7.5)" fill="#f6e56f"/>
  <path id="Path-11" data-name="Path" d="M.829,4.377a.392.392,0,0,0,.017.059.541.541,0,0,0,.51.337h0a.54.54,0,0,0,.509-.343l0-.011.854-2.582.851,2.582.006.017a.541.541,0,0,0,.51.337h0a.54.54,0,0,0,.509-.343.394.394,0,0,0,.015-.053L5.446.506A.42.42,0,0,0,5.1.015.447.447,0,0,0,4.57.343L4.021,2.925,3.154.295h0a.433.433,0,0,0-.292-.27A.453.453,0,0,0,2.3.3L1.432,2.925.885.337A.446.446,0,0,0,.36.008.42.42,0,0,0,.009.5Z" transform="translate(12.273 7.5)" fill="#f6e56f"/>
  <path id="Path-12" data-name="Path" d="M28.464,0H20.308a.439.439,0,0,0,0,.879h6.674a1.584,1.584,0,0,0-.17.715v9.979a.439.439,0,0,0,.879,0V1.594A.726.726,0,0,1,28.42.878a.746.746,0,0,1,.7.743V27.34a1.829,1.829,0,0,1-1.869,1.781h0a1.829,1.829,0,0,1-1.869-1.781V24.022h.685A1.625,1.625,0,0,0,27.691,22.4V13.623a.439.439,0,0,0-.879,0V22.4a.745.745,0,0,1-.744.744h-.685V5.293A1.625,1.625,0,0,0,23.76,3.67H3.306V1.594A.715.715,0,0,1,4.02.879H18.257a.439.439,0,1,0,0-.879H4.02A1.6,1.6,0,0,0,2.427,1.594V3.67h-.8A1.625,1.625,0,0,0,0,5.293V18.25a.439.439,0,0,0,.879,0V5.293a.745.745,0,0,1,.744-.744H23.76a.745.745,0,0,1,.745.744V27.34a2.6,2.6,0,0,0,.709,1.781H2.748A1.829,1.829,0,0,1,.879,27.34V20.3A.439.439,0,0,0,0,20.3V27.34A2.708,2.708,0,0,0,2.748,30h24.5A2.708,2.708,0,0,0,30,27.34V1.621A1.6,1.6,0,0,0,28.464,0Z" fill="#f6e56f"/>
</svg>
