<svg xmlns="http://www.w3.org/2000/svg" width="28" height="32" viewBox="0 0 28 32">
  <g id="money" transform="translate(0)">
    <path id="Path" d="M2.23,8.01A.465.465,0,0,0,2.054,8a1.2,1.2,0,0,1-1.03-1.212.525.525,0,0,0-.512-.538A.525.525,0,0,0,0,6.792,2.286,2.286,0,0,0,1.611,9.007v.538a.525.525,0,0,0,.512.538.525.525,0,0,0,.512-.538V9.039A2.285,2.285,0,0,0,4.363,6.556,2.23,2.23,0,0,0,2.188,4.5,1.193,1.193,0,0,1,1.025,3.275,1.193,1.193,0,0,1,2.188,2.054,1.193,1.193,0,0,1,3.351,3.275a.513.513,0,1,0,1.024,0A2.277,2.277,0,0,0,2.636,1.027V.538A.525.525,0,0,0,2.123,0a.525.525,0,0,0-.512.538V1.06A2.3,2.3,0,0,0,.02,3.58,2.225,2.225,0,0,0,2.188,5.571,1.223,1.223,0,0,1,2.23,8.01Z" transform="translate(11.813 10.082)"/>
    <path id="Shape" d="M0,7.452A7.564,7.564,0,0,1,7.656,0a7.556,7.556,0,0,1,7.656,7.452A7.556,7.556,0,0,1,7.656,14.9,7.556,7.556,0,0,1,0,7.452Z" transform="translate(6.563 7.014)"/>
    <path id="Shape-2" data-name="Shape" d="M14.084,10.375l-.034-.008-6.412-1.8a1.842,1.842,0,0,0-1.375.15l-1.074.575-.012.435a.522.522,0,0,1-.522.507H4.641L.508,10.12A.523.523,0,0,1,0,9.583L.25.508A.522.522,0,0,1,.786,0L4.919.114A.52.52,0,0,1,5.426.65L5.4,1.519a6.766,6.766,0,0,1,6.268-.006l.383.2a3.977,3.977,0,0,0,1.714.443l3.769.1a3.325,3.325,0,0,1,2.836,1.751l4.083-1.931a2.632,2.632,0,0,1,3.478,1.06.521.521,0,0,1-.171.695l-9.3,6.017a.567.567,0,0,1-.065.036,6.948,6.948,0,0,1-2.905.634h-.013A6.805,6.805,0,0,1,14.084,10.375Z" transform="translate(0 21.479)"/>
    <path id="Path-2" data-name="Path" d="M.875,6V.572A.518.518,0,0,0,.438,0,.518.518,0,0,0,0,.572V6a.518.518,0,0,0,.438.572A.518.518,0,0,0,.875,6Z" transform="translate(14)"/>
    <path id="Path-3" data-name="Path" d="M.875,2.967V.54A.5.5,0,0,0,.438,0,.5.5,0,0,0,0,.54V2.967a.5.5,0,0,0,.438.54A.5.5,0,0,0,.875,2.967Z" transform="translate(17.5 3.068)"/>
    <path id="Path-4" data-name="Path" d="M.875,2.967V.54A.5.5,0,0,0,.438,0,.5.5,0,0,0,0,.54V2.967a.5.5,0,0,0,.438.54A.5.5,0,0,0,.875,2.967Z" transform="translate(9.625 3.068)"/>
  </g>
</svg>
