<svg id="newspaper" xmlns="http://www.w3.org/2000/svg" width="32" height="32" viewBox="0 0 32 32">
  <path id="Path" d="M11.2,0H.469a.469.469,0,0,0,0,.938H11.2A.469.469,0,0,0,11.2,0Z" transform="translate(13.385 16.857)"/>
  <path id="Path-2" data-name="Path" d="M11.2,0H.469a.469.469,0,0,0,0,.938H11.2A.469.469,0,0,0,11.2,0Z" transform="translate(13.385 18.877)"/>
  <path id="Path-3" data-name="Path" d="M11.2,0H.469a.469.469,0,0,0,0,.938H11.2A.469.469,0,0,0,11.2,0Z" transform="translate(13.385 20.898)"/>
  <path id="Path-4" data-name="Path" d="M11.2,0H.469a.469.469,0,0,0,0,.938H11.2A.469.469,0,0,0,11.2,0Z" transform="translate(13.385 22.918)"/>
  <path id="Path-5" data-name="Path" d="M11.2,0H.469a.469.469,0,0,0,0,.938H11.2A.469.469,0,0,0,11.2,0Z" transform="translate(13.385 24.938)"/>
  <path id="Path-6" data-name="Path" d="M11.2,0H.469a.469.469,0,0,0,0,.938H11.2A.469.469,0,0,0,11.2,0Z" transform="translate(13.385 26.959)"/>
  <path id="Path-7" data-name="Path" d="M.469.938h22.1a.469.469,0,0,0,0-.937H.469a.469.469,0,0,0,0,.938Z" transform="translate(2.02 28.979)"/>
  <path id="Shape" d="M.469,11.039A.469.469,0,0,1,0,10.571V.469A.469.469,0,0,1,.469,0H9.308a.469.469,0,0,1,.469.469v10.1a.469.469,0,0,1-.469.469Z" transform="translate(2.02 16.857)"/>
  <path id="Shape-2" data-name="Shape" d="M.469,9.4A.469.469,0,0,1,0,8.929V.469A.469.469,0,0,1,.469,0h22.1a.469.469,0,0,1,.469.469v8.46a.469.469,0,0,1-.469.469Z" transform="translate(2.02 5.872)"/>
  <path id="Path-8" data-name="Path" d="M.469,5.357a.469.469,0,0,0,.469-.469V1.981L3.066,5.063a.528.528,0,0,0,.6.222.551.551,0,0,0,.373-.55L3.993.464A.469.469,0,0,0,3.524,0h0a.469.469,0,0,0-.464.473L3.084,3.44.854.211A.469.469,0,0,0,0,.477V4.888A.469.469,0,0,0,.469,5.357Z" transform="translate(3.87 7.892)"/>
  <path id="Path-9" data-name="Path" d="M.469,5.357H2.331a.469.469,0,0,0,0-.937H.938V3.147H2.194a.469.469,0,0,0,0-.937H.938V.938H2.331a.469.469,0,0,0,0-.937H.469A.469.469,0,0,0,0,.469V4.888a.469.469,0,0,0,.469.469Z" transform="translate(8.949 7.892)"/>
  <path id="Path-10" data-name="Path" d="M2.009,5.357A1.739,1.739,0,0,0,3.786,4.013,1.585,1.585,0,0,0,2.555,2.274C2,2.068,1.482,1.845,1.338,1.781a.388.388,0,0,1-.148-.372A.524.524,0,0,1,1.6.987a1.557,1.557,0,0,1,1.293.3.469.469,0,0,0,.6-.719A2.487,2.487,0,0,0,1.329.089,1.472,1.472,0,0,0,.261,1.276a1.322,1.322,0,0,0,.59,1.308.46.46,0,0,0,.065.035c.025.011.632.281,1.315.533.451.166.682.42.633.695a.829.829,0,0,1-.854.571,1.624,1.624,0,0,1-1.193-.5.469.469,0,0,0-.695.63,2.575,2.575,0,0,0,1.887.809Z" transform="translate(19.398 7.892)"/>
  <path id="Path-11" data-name="Path" d="M.87,4.913a.463.463,0,0,0,.018.066.569.569,0,0,0,.536.378h0a.569.569,0,0,0,.534-.385l0-.012.9-2.9.893,2.9.006.019a.569.569,0,0,0,.536.378h0a.569.569,0,0,0,.534-.385.466.466,0,0,0,.016-.059L5.717.568A.469.469,0,0,0,4.8.385l-.577,2.9L3.311.331h0a.468.468,0,0,0-.893.007L1.5,3.284.929.378A.469.469,0,1,0,.009.56Z" transform="translate(12.832 7.892)"/>
  <path id="Path-12" data-name="Path" d="M30.362,0h-8.7a.469.469,0,0,0,0,.938h7.119A1.69,1.69,0,0,0,28.6,1.7V12.344a.469.469,0,0,0,.938,0V1.7a.774.774,0,0,1,.777-.763.8.8,0,0,1,.748.793V29.163a1.951,1.951,0,0,1-1.993,1.9h0a1.95,1.95,0,0,1-1.993-1.9V25.623h.731a1.733,1.733,0,0,0,1.731-1.731V14.531a.469.469,0,1,0-.937,0v9.361a.8.8,0,0,1-.794.794h-.731V5.646a1.734,1.734,0,0,0-1.732-1.731H3.526V1.7A.763.763,0,0,1,4.288.938H19.474a.469.469,0,1,0,0-.937H4.288a1.7,1.7,0,0,0-1.7,1.7V3.914H1.731A1.733,1.733,0,0,0,0,5.646V19.467a.469.469,0,0,0,.937,0V5.646a.8.8,0,0,1,.794-.794H25.344a.8.8,0,0,1,.794.794V29.163a2.777,2.777,0,0,0,.756,1.9H2.931a1.951,1.951,0,0,1-1.994-1.9V21.654a.469.469,0,0,0-.937,0v7.508A2.889,2.889,0,0,0,2.931,32H29.069A2.889,2.889,0,0,0,32,29.163V1.729A1.709,1.709,0,0,0,30.362,0Z"/>
</svg>
